<svg width="20" height="12" viewBox="0 0 20 12" fill="none" xmlns="http://www.w3.org/2000/svg">
<path d="M0.267489 6.62054L5.53496 11.7209C5.89245 12.0127 6.57663 12.1334 6.97528 11.7959C7.36879 11.4631 7.35592 10.8173 6.96499 10.4833L3.2613 6.90166H19.0124C19.5576 6.90166 20 6.49849 20 6.00159C20 5.5047 19.5576 5.10153 19.0124 5.10153H3.2613L6.96499 1.51986C7.30191 1.21165 7.36492 0.543622 6.97528 0.207267C6.5869 -0.129087 5.87705 -0.0212654 5.53496 0.282273L0.267489 5.38265C0.0874465 5.55727 0 5.76236 0 6.00144C0.0090021 6.21621 0.106739 6.46468 0.267489 6.62054Z" fill="black"/>
</svg>
