<svg width="22" height="22" viewBox="0 0 22 22" fill="none" xmlns="http://www.w3.org/2000/svg">
<path d="M7.3335 5.27083C6.95766 5.27083 6.646 4.95917 6.646 4.58333V1.83333C6.646 1.4575 6.95766 1.14583 7.3335 1.14583C7.70933 1.14583 8.021 1.4575 8.021 1.83333V4.58333C8.021 4.95917 7.70933 5.27083 7.3335 5.27083Z" fill="#262626"/>
<path d="M14.6665 5.27083C14.2907 5.27083 13.979 4.95917 13.979 4.58333V1.83333C13.979 1.4575 14.2907 1.14583 14.6665 1.14583C15.0423 1.14583 15.354 1.4575 15.354 1.83333V4.58333C15.354 4.95917 15.0423 5.27083 14.6665 5.27083Z" fill="#262626"/>
<path d="M7.79167 13.2917C7.6725 13.2917 7.55333 13.2642 7.44333 13.2184C7.32417 13.1726 7.2325 13.1084 7.14083 13.0259C6.97583 12.8517 6.875 12.6226 6.875 12.3751C6.875 12.2559 6.9025 12.1367 6.94834 12.0267C6.99417 11.9167 7.05833 11.8159 7.14083 11.7242C7.2325 11.6417 7.32417 11.5776 7.44333 11.5317C7.77333 11.3942 8.18583 11.4676 8.4425 11.7242C8.6075 11.8984 8.70833 12.1367 8.70833 12.3751C8.70833 12.4301 8.69917 12.4942 8.69 12.5584C8.68083 12.6134 8.6625 12.6684 8.635 12.7234C8.61666 12.7784 8.58917 12.8334 8.5525 12.8884C8.525 12.9342 8.47917 12.9801 8.4425 13.0259C8.26833 13.1909 8.03 13.2917 7.79167 13.2917Z" fill="#262626"/>
<path d="M11.0002 13.2915C10.881 13.2915 10.7618 13.2641 10.6518 13.2182C10.5327 13.1724 10.441 13.1082 10.3493 13.0257C10.1843 12.8515 10.0835 12.6224 10.0835 12.3749C10.0835 12.2557 10.111 12.1365 10.1568 12.0265C10.2027 11.9165 10.2668 11.8157 10.3493 11.7241C10.441 11.6416 10.5327 11.5774 10.6518 11.5315C10.9818 11.3849 11.3943 11.4674 11.651 11.7241C11.816 11.8982 11.9168 12.1366 11.9168 12.3749C11.9168 12.4299 11.9077 12.4941 11.8985 12.5582C11.8893 12.6132 11.871 12.6682 11.8435 12.7232C11.8252 12.7782 11.7977 12.8332 11.761 12.8882C11.7335 12.934 11.6877 12.9799 11.651 13.0257C11.4768 13.1907 11.2385 13.2915 11.0002 13.2915Z" fill="#262626"/>
<path d="M14.2082 13.2915C14.089 13.2915 13.9698 13.2641 13.8598 13.2182C13.7407 13.1724 13.649 13.1082 13.5573 13.0257C13.5207 12.9799 13.484 12.934 13.4473 12.8882C13.4107 12.8332 13.3832 12.7782 13.3648 12.7232C13.3373 12.6682 13.319 12.6132 13.3098 12.5582C13.3007 12.4941 13.2915 12.4299 13.2915 12.3749C13.2915 12.1366 13.3923 11.8982 13.5573 11.7241C13.649 11.6416 13.7407 11.5774 13.8598 11.5315C14.199 11.3849 14.6023 11.4674 14.859 11.7241C15.024 11.8982 15.1248 12.1366 15.1248 12.3749C15.1248 12.4299 15.1157 12.4941 15.1065 12.5582C15.0973 12.6132 15.079 12.6682 15.0515 12.7232C15.0332 12.7782 15.0057 12.8332 14.969 12.8882C14.9415 12.934 14.8957 12.9799 14.859 13.0257C14.6848 13.1907 14.4465 13.2915 14.2082 13.2915Z" fill="#262626"/>
<path d="M7.79167 16.4999C7.6725 16.4999 7.55333 16.4725 7.44333 16.4266C7.33333 16.3808 7.2325 16.3166 7.14083 16.2341C6.97583 16.0599 6.875 15.8216 6.875 15.5833C6.875 15.4641 6.9025 15.3449 6.94834 15.2349C6.99417 15.1158 7.05833 15.015 7.14083 14.9325C7.48 14.5933 8.10333 14.5933 8.4425 14.9325C8.6075 15.1066 8.70833 15.3449 8.70833 15.5833C8.70833 15.8216 8.6075 16.0599 8.4425 16.2341C8.26833 16.3991 8.03 16.4999 7.79167 16.4999Z" fill="#262626"/>
<path d="M11.0002 16.4999C10.7618 16.4999 10.5235 16.3991 10.3493 16.2341C10.1843 16.0599 10.0835 15.8216 10.0835 15.5833C10.0835 15.4641 10.111 15.3449 10.1568 15.2349C10.2027 15.1158 10.2668 15.015 10.3493 14.9325C10.6885 14.5933 11.3118 14.5933 11.651 14.9325C11.7335 15.015 11.7977 15.1158 11.8435 15.2349C11.8893 15.3449 11.9168 15.4641 11.9168 15.5833C11.9168 15.8216 11.816 16.0599 11.651 16.2341C11.4768 16.3991 11.2385 16.4999 11.0002 16.4999Z" fill="#262626"/>
<path d="M14.2082 16.4999C13.9698 16.4999 13.7315 16.3991 13.5573 16.2341C13.4748 16.1516 13.4107 16.0508 13.3648 15.9316C13.319 15.8216 13.2915 15.7024 13.2915 15.5833C13.2915 15.4641 13.319 15.3449 13.3648 15.2349C13.4107 15.1157 13.4748 15.0149 13.5573 14.9324C13.7682 14.7216 14.089 14.6207 14.3823 14.6849C14.4465 14.6941 14.5015 14.7124 14.5565 14.7399C14.6115 14.7582 14.6665 14.7858 14.7215 14.8224C14.7673 14.8499 14.8132 14.8958 14.859 14.9324C15.024 15.1066 15.1248 15.3449 15.1248 15.5833C15.1248 15.8216 15.024 16.0599 14.859 16.2341C14.6848 16.3991 14.4465 16.4999 14.2082 16.4999Z" fill="#262626"/>
<path d="M18.7918 9.01985H3.2085C2.83266 9.01985 2.521 8.70819 2.521 8.33236C2.521 7.95652 2.83266 7.64486 3.2085 7.64486H18.7918C19.1677 7.64486 19.4793 7.95652 19.4793 8.33236C19.4793 8.70819 19.1677 9.01985 18.7918 9.01985Z" fill="#262626"/>
<path d="M14.6667 20.8542H7.33333C3.9875 20.8542 2.0625 18.9292 2.0625 15.5833V7.79167C2.0625 4.44583 3.9875 2.52083 7.33333 2.52083H14.6667C18.0125 2.52083 19.9375 4.44583 19.9375 7.79167V15.5833C19.9375 18.9292 18.0125 20.8542 14.6667 20.8542ZM7.33333 3.89583C4.71167 3.89583 3.4375 5.17 3.4375 7.79167V15.5833C3.4375 18.205 4.71167 19.4792 7.33333 19.4792H14.6667C17.2883 19.4792 18.5625 18.205 18.5625 15.5833V7.79167C18.5625 5.17 17.2883 3.89583 14.6667 3.89583H7.33333Z" fill="#262626"/>
</svg>
