<svg width="20" height="20" viewBox="0 0 20 20" fill="none" xmlns="http://www.w3.org/2000/svg">
<path d="M13.6667 0.833313C16.7042 0.833313 19.1667 3.29575 19.1667 6.33331C19.1667 7.74251 18.6331 9.06896 17.6964 10.0766L17.5223 10.2552L9.52249 18.2549L9.47379 18.3002L9.42271 18.3414C8.80926 18.8695 8.02551 19.1666 7.19772 19.1666C5.31387 19.1666 3.78671 17.6395 3.78671 15.7556C3.78671 14.9294 4.08281 14.1477 4.60764 13.536L4.74357 13.3866L4.7574 13.3757L11.4408 6.68054C11.7985 6.32225 12.3789 6.32174 12.7372 6.67941C13.0955 7.03707 13.096 7.61747 12.7383 7.97577L6.05489 14.6709L6.04487 14.6786C5.77326 14.969 5.62004 15.3491 5.62004 15.7556C5.62004 16.627 6.32639 17.3333 7.19772 17.3333C7.5451 17.3333 7.87321 17.2215 8.14301 17.019L8.25496 16.9267L8.25567 16.9281L16.2329 8.9523L16.3782 8.8016C16.9879 8.13272 17.3333 7.26144 17.3333 6.33331C17.3333 4.30827 15.6917 2.66665 13.6667 2.66665C12.6935 2.66665 11.7833 3.0467 11.1045 3.71035L10.9626 3.85687L10.9457 3.86875L2.3975 12.4202C2.0396 12.7783 1.4592 12.7784 1.10113 12.4205C0.743074 12.0626 0.742944 11.4822 1.10084 11.1242L9.63406 2.58712L9.67679 2.54768C10.707 1.46194 12.1374 0.833313 13.6667 0.833313Z" fill="#4F4F4F"/>
</svg>
