<svg width="15" height="15" viewBox="0 0 15 15" fill="none" xmlns="http://www.w3.org/2000/svg">
<path d="M14.5833 4.1283C14.5838 4.03508 14.566 3.94267 14.5307 3.85637C14.4955 3.77007 14.4435 3.69157 14.3779 3.62539L11.3746 0.622054C11.3084 0.556405 11.2299 0.504466 11.1436 0.469217C11.0573 0.433967 10.9649 0.416099 10.8716 0.416638C10.7784 0.416099 10.686 0.433967 10.5997 0.469217C10.5134 0.504466 10.4349 0.556405 10.3687 0.622054L8.36414 2.62664L0.622054 10.3687C0.556405 10.4349 0.504466 10.5134 0.469217 10.5997C0.433967 10.686 0.416099 10.7784 0.416638 10.8716V13.875C0.416638 14.0628 0.491266 14.243 0.624104 14.3758C0.756942 14.5087 0.937109 14.5833 1.12497 14.5833H4.1283C4.22742 14.5887 4.32656 14.5732 4.4193 14.5378C4.51204 14.5024 4.59631 14.4479 4.66664 14.3779L12.3662 6.63581L14.3779 4.66664C14.4425 4.59799 14.4952 4.51897 14.5337 4.43289C14.5405 4.37643 14.5405 4.31935 14.5337 4.26289C14.537 4.22992 14.537 4.19669 14.5337 4.16372L14.5833 4.1283ZM3.83789 13.1666H1.8333V11.1621L8.86706 4.1283L10.8716 6.13289L3.83789 13.1666ZM11.8704 5.13414L9.86581 3.12955L10.8716 2.1308L12.8691 4.1283L11.8704 5.13414Z" fill="#121212"/>
</svg>
