<svg width="20" height="14" viewBox="0 0 20 14" fill="none" xmlns="http://www.w3.org/2000/svg">
<path fill-rule="evenodd" clip-rule="evenodd" d="M13.2641 3.70375C13.2641 5.75972 11.6251 7.40828 9.58096 7.40828C7.53687 7.40828 5.89784 5.75972 5.89784 3.70375C5.89784 1.64698 7.53687 0 9.58096 0C11.6251 0 13.2641 1.64698 13.2641 3.70375ZM9.5801 14C6.57781 14 4.01427 13.5241 4.01427 11.6202C4.01427 9.71551 6.56136 9.22221 9.5801 9.22221C12.5824 9.22221 15.1459 9.69818 15.1459 11.6028C15.1459 13.5067 12.5988 14 9.5801 14ZM14.8388 3.77025C14.8388 4.81833 14.5262 5.7947 13.9778 6.60637C13.9214 6.6899 13.9715 6.80259 14.071 6.81993C14.2081 6.84357 14.3499 6.85697 14.4941 6.86091C15.9318 6.89873 17.2222 5.96807 17.5787 4.56695C18.1067 2.48576 16.5562 0.617338 14.5819 0.617338C14.3672 0.617338 14.1619 0.640191 13.9621 0.681168C13.9347 0.687473 13.9057 0.700081 13.89 0.72451C13.8712 0.754455 13.8853 0.794645 13.9041 0.82065C14.4972 1.65675 14.8388 2.67646 14.8388 3.77025ZM17.2178 8.32342C18.1838 8.51334 18.8192 8.90105 19.0824 9.46449C19.305 9.92706 19.305 10.4637 19.0824 10.9255C18.6797 11.7994 17.3815 12.08 16.877 12.1525C16.7728 12.1682 16.6889 12.0776 16.6999 11.9728C16.9577 9.55117 14.9073 8.40301 14.3769 8.13902C14.3542 8.1272 14.3495 8.10908 14.3518 8.09804C14.3534 8.09016 14.3628 8.07756 14.38 8.07519C15.5278 8.05391 16.7618 8.21152 17.2178 8.32342ZM4.75718 6.86091C4.90134 6.85697 5.04237 6.84436 5.18026 6.81993C5.27976 6.80259 5.3299 6.6899 5.27349 6.60637C4.72506 5.7947 4.41245 4.81833 4.41245 3.77025C4.41245 2.67646 4.75405 1.65675 5.34714 0.82065C5.36594 0.794645 5.37926 0.754455 5.36124 0.72451C5.34557 0.700869 5.3158 0.687473 5.28916 0.681168C5.08859 0.640191 4.88332 0.617338 4.66865 0.617338C2.69428 0.617338 1.14378 2.48576 1.67263 4.56695C2.02911 5.96807 3.3195 6.89873 4.75718 6.86091ZM4.89732 8.09778C4.89967 8.1096 4.89497 8.12694 4.87303 8.13955C4.34184 8.40354 2.29148 9.5517 2.54924 11.9725C2.56021 12.0781 2.47716 12.168 2.37296 12.153C1.8684 12.0805 0.570176 11.8 0.167468 10.926C-0.0558228 10.4635 -0.0558228 9.92759 0.167468 9.46502C0.430717 8.90157 1.06533 8.51386 2.03136 8.32316C2.48813 8.21205 3.72132 8.05444 4.8699 8.07572C4.88714 8.07808 4.89575 8.09069 4.89732 8.09778Z" fill="#323232"/>
</svg>
