<svg width="121" height="13" viewBox="0 0 121 13" fill="none" xmlns="http://www.w3.org/2000/svg">
<path d="M19.1504 5.63523V7.61375H22.2264C21.84 8.72673 20.7735 9.46864 19.3204 9.45322C17.3419 9.43775 16.1362 7.95383 16.1362 6.20715C16.1362 4.47593 17.3109 3.02287 19.274 2.99197C20.5725 2.96108 21.5617 3.6412 21.9946 4.59956H24.4368C23.8804 2.40459 21.9173 0.812425 19.2895 0.812425C15.9971 0.812425 13.8948 3.28564 13.8948 6.23804C13.8948 9.22139 16.0434 11.6173 19.2741 11.6173C22.6438 11.6173 24.8852 9.0204 24.6688 5.63523H19.1504ZM35.6436 11.4008L31.3773 1.04435H28.935L24.6842 11.4008H27.0956L27.9458 9.20591H32.2893L33.1549 11.4008H35.6436H35.6436ZM30.1098 3.68756L31.5164 7.27372H28.7031L30.1097 3.68756H30.1098ZM39.1215 1.04435C37.112 1.04435 36.0609 2.4819 36.0609 3.96581C36.0609 5.15605 36.8028 6.37719 38.3949 6.76359L42.1048 7.64465C42.584 7.75285 42.8004 8.09293 42.8004 8.43302C42.8004 8.85036 42.4758 9.25228 41.9347 9.25228H36.4628V11.4008H42.0121C44.0679 11.4008 45.1345 9.91698 45.1345 8.40212C45.1345 7.18098 44.3925 5.9289 42.7849 5.55792L39.0906 4.69229C38.6578 4.58409 38.4414 4.24401 38.4414 3.91944C38.4414 3.53295 38.7196 3.17744 39.2761 3.17744H44.4544V1.0443H39.1215L39.1215 1.04435ZM45.2426 1.04435V3.17749H48.7051V11.4009H50.9156V3.17749H54.3935V1.04435H45.2426ZM57.825 11.4008V7.87657H61.9058C62.3077 7.87657 62.555 8.07751 62.555 8.49485V11.4009H64.75V8.09298C64.75 7.01099 64.3172 6.37719 63.4824 6.16083V6.11446C64.1162 5.6507 64.5027 4.92422 64.5027 3.93496C64.5027 2.0646 63.0188 1.0444 60.932 1.0444H55.6301V11.4009H57.825V11.4008ZM57.825 3.17744H60.7774C61.643 3.17744 62.3077 3.68752 62.3077 4.52225C62.3077 5.38788 61.6585 5.88254 60.7619 5.88254H57.825V3.17749L57.825 3.17744ZM71.2421 11.6172C74.5655 11.6172 76.6987 9.1904 76.6987 6.238C76.6987 3.28564 74.55 0.812378 71.2421 0.812378C67.9188 0.812378 65.7856 3.2856 65.7856 6.238C65.7856 9.19035 67.9188 11.6172 71.2421 11.6172ZM71.2421 9.46864C69.2326 9.46864 68.027 7.95379 68.027 6.22257C68.027 4.46041 69.2481 2.9765 71.2421 2.9765C73.2362 2.9765 74.4573 4.46046 74.4573 6.22257C74.4573 7.96926 73.2362 9.46864 71.2421 9.46864Z" fill="#656565"/>
<path fill-rule="evenodd" clip-rule="evenodd" d="M78.0148 0H120.867V12.43H78.0148V0ZM82.4354 1.04447C80.426 1.04447 79.3748 2.48201 79.3748 3.96592C79.3748 5.15617 80.1168 6.3773 81.709 6.76371L85.4188 7.64476C85.898 7.75296 86.1144 8.09305 86.1144 8.43313C86.1144 8.85047 85.7898 9.25235 85.2487 9.25235H79.7768V11.401H85.326C87.3818 11.401 88.4484 9.91709 88.4484 8.40224C88.4484 7.18105 87.7064 5.92902 86.0989 5.55804L82.4045 4.69241C81.9717 4.5842 81.7553 4.24412 81.7553 3.91951C81.7553 3.53311 82.0336 3.17755 82.59 3.17755H87.7683V1.04442H82.4354V1.04447ZM94.786 11.6174C98.1093 11.6174 100.243 9.19056 100.243 6.23816C100.243 3.2858 98.0939 0.812634 94.786 0.812634C91.4626 0.812634 89.3294 3.2858 89.3294 6.23816C89.3294 9.19051 91.4626 11.6174 94.786 11.6174ZM94.786 9.4688C92.7765 9.4688 91.5708 7.95395 91.5708 6.22273C91.5708 4.46058 92.792 2.97666 94.786 2.97666C96.78 2.97666 98.0011 4.46062 98.0011 6.22273C98.0011 7.96942 96.78 9.4688 94.786 9.4688ZM109.594 1.04447H101.68V11.401H103.875V7.39751H109.022V5.3571H103.875V3.1776H109.594V1.04447ZM110.414 1.04447V3.1776H113.876V11.401H116.086V3.1776H119.564V1.04447H110.414Z" fill="#656565"/>
<path fill-rule="evenodd" clip-rule="evenodd" d="M0 0H12.43V12.43H0V0ZM3.14718 0.817337H9.28376C9.37409 0.817337 9.44797 0.891165 9.44797 0.981547V1.91447C9.44797 2.0048 9.37414 2.07868 9.28376 2.07868H3.14718C3.05684 2.07868 2.98297 2.00485 2.98297 1.91447V0.981547C2.98297 0.891212 3.05679 0.817337 3.14718 0.817337ZM2.66546 6.21502C2.66546 8.39861 4.25997 9.80019 6.19979 9.80019C8.13965 9.80019 9.76459 8.38846 9.76459 6.21502C9.76459 4.03148 8.13965 2.6299 6.19979 2.6299C4.25997 2.6299 2.66546 4.03148 2.66546 6.21502ZM4.07714 6.21502C4.07714 4.89471 5.07246 4.10258 6.20994 4.10258C7.36779 4.10258 8.34275 4.90491 8.34275 6.21502C8.34275 7.52518 7.36779 8.32751 6.20994 8.32751C5.0623 8.32751 4.07714 7.52513 4.07714 6.21502ZM3.14675 10.3528H9.28334C9.37367 10.3528 9.44755 10.4266 9.44755 10.517V11.4499C9.44755 11.5402 9.37372 11.6141 9.28334 11.6141H3.14675C3.05642 11.6141 2.98254 11.5403 2.98254 11.4499V10.517C2.98254 10.4266 3.05637 10.3528 3.14675 10.3528Z" fill="#656565"/>
</svg>
