<svg width="9" height="15" viewBox="0 0 9 15" fill="none" xmlns="http://www.w3.org/2000/svg">
<path d="M5.625 0C7.35089 0 8.75 1.39911 8.75 3.125V10.625C8.75 13.0412 6.79125 15 4.375 15C1.95875 15 0 13.0412 0 10.625V5.625H1.25V10.625C1.25 12.3509 2.64911 13.75 4.375 13.75C6.10089 13.75 7.5 12.3509 7.5 10.625V3.125C7.5 2.08947 6.66054 1.25 5.625 1.25C4.58947 1.25 3.75 2.08947 3.75 3.125V10.625C3.75 10.9702 4.02982 11.25 4.375 11.25C4.72018 11.25 5 10.9702 5 10.625V3.75H6.25V10.625C6.25 11.6605 5.41054 12.5 4.375 12.5C3.33947 12.5 2.5 11.6605 2.5 10.625V3.125C2.5 1.39911 3.89911 0 5.625 0Z" fill="white"/>
</svg>
