<svg width="171" height="22" viewBox="0 0 171 22" fill="none" xmlns="http://www.w3.org/2000/svg">
<path d="M3.80613 4.232C3.80613 5 3.99813 5.68267 4.38213 6.28C4.78746 6.87733 5.27813 7.4 5.85413 7.848C6.43013 8.296 7.2088 8.84 8.19013 9.48C9.2568 10.1627 10.1101 10.76 10.7501 11.272C11.3901 11.784 11.9341 12.4133 12.3821 13.16C12.8301 13.8853 13.0541 14.728 13.0541 15.688C13.0541 16.7973 12.7555 17.7893 12.1581 18.664C11.5608 19.5173 10.7288 20.1893 9.66213 20.68C8.6168 21.1493 7.44346 21.384 6.14213 21.384C5.18213 21.384 4.17946 21.256 3.13413 21C2.0888 20.7227 1.3848 20.424 1.02213 20.104C0.915462 20.0187 0.830129 19.944 0.766129 19.88C0.723462 19.7947 0.702129 19.6667 0.702129 19.496L0.606129 14.408V14.376C0.606129 14.2907 0.659462 14.248 0.766129 14.248C0.872796 14.2267 0.936795 14.2587 0.958129 14.344C1.59813 15.6453 2.1528 16.7013 2.62213 17.512C3.1128 18.3227 3.7208 19.0373 4.44613 19.656C5.1928 20.2747 6.03546 20.584 6.97413 20.584C7.82746 20.584 8.53146 20.36 9.08613 19.912C9.6408 19.4427 9.91813 18.6533 9.91813 17.544C9.91813 16.6053 9.7048 15.784 9.27813 15.08C8.8728 14.376 8.37146 13.7787 7.77413 13.288C7.1768 12.7973 6.35546 12.2107 5.31013 11.528C4.28613 10.8667 3.48613 10.3013 2.91013 9.832C2.35546 9.36267 1.87546 8.79733 1.47013 8.136C1.0648 7.47467 0.862129 6.696 0.862129 5.8C0.862129 4.66933 1.18213 3.72 1.82213 2.952C2.48346 2.16267 3.32613 1.58667 4.35013 1.224C5.37413 0.839999 6.45146 0.647999 7.58213 0.647999C8.3288 0.647999 9.08613 0.722666 9.85413 0.872C10.6221 0.999999 11.2408 1.16 11.7101 1.352C11.9021 1.43733 12.0301 1.53333 12.0941 1.64C12.1581 1.72533 12.1901 1.84267 12.1901 1.992V6.696C12.1901 6.76 12.1368 6.81333 12.0301 6.856C11.9235 6.87733 11.8595 6.856 11.8381 6.792L11.5821 6.184C11.0488 4.84 10.4195 3.69867 9.69413 2.76C8.99013 1.82133 7.99813 1.352 6.71813 1.352C5.8648 1.352 5.1608 1.59733 4.60613 2.088C4.0728 2.57867 3.80613 3.29333 3.80613 4.232ZM22.9309 18.408C22.9309 19.0693 22.9842 19.5493 23.0909 19.848C23.1975 20.1467 23.4002 20.3493 23.6989 20.456C24.0189 20.5627 24.5202 20.616 25.2029 20.616C25.2669 20.616 25.2989 20.68 25.2989 20.808C25.2989 20.936 25.2669 21 25.2029 21C24.4989 21 23.9442 20.9893 23.5389 20.968L21.1069 20.936L18.7389 20.968C18.3122 20.9893 17.7362 21 17.0109 21C16.9682 21 16.9469 20.936 16.9469 20.808C16.9469 20.68 16.9682 20.616 17.0109 20.616C17.6935 20.616 18.1949 20.5627 18.5149 20.456C18.8349 20.3493 19.0482 20.1467 19.1549 19.848C19.2829 19.528 19.3469 19.048 19.3469 18.408V3.592C19.3469 2.952 19.2829 2.48267 19.1549 2.184C19.0482 1.88533 18.8349 1.68266 18.5149 1.576C18.1949 1.448 17.6935 1.384 17.0109 1.384C16.9682 1.384 16.9469 1.32 16.9469 1.192C16.9469 1.064 16.9682 1 17.0109 1L18.7389 1.032C19.7202 1.07467 20.5095 1.096 21.1069 1.096C21.7682 1.096 22.5895 1.07467 23.5709 1.032L25.2029 1C25.2669 1 25.2989 1.064 25.2989 1.192C25.2989 1.32 25.2669 1.384 25.2029 1.384C24.5415 1.384 24.0509 1.448 23.7309 1.576C23.4109 1.704 23.1975 1.928 23.0909 2.248C22.9842 2.54667 22.9309 3.016 22.9309 3.656V18.408ZM34.8284 18.408C34.8284 19.0693 34.8817 19.5493 34.9884 19.848C35.095 20.1467 35.2977 20.3493 35.5964 20.456C35.9164 20.5627 36.4177 20.616 37.1004 20.616C37.1644 20.616 37.1964 20.68 37.1964 20.808C37.1964 20.936 37.1644 21 37.1004 21C36.3964 21 35.8417 20.9893 35.4364 20.968L33.0044 20.936L30.6364 20.968C30.2097 20.9893 29.6337 21 28.9084 21C28.8657 21 28.8444 20.936 28.8444 20.808C28.8444 20.68 28.8657 20.616 28.9084 20.616C29.591 20.616 30.0924 20.5627 30.4124 20.456C30.7324 20.3493 30.9457 20.1467 31.0524 19.848C31.1804 19.528 31.2444 19.048 31.2444 18.408V3.592C31.2444 2.952 31.1804 2.48267 31.0524 2.184C30.9457 1.88533 30.7324 1.68266 30.4124 1.576C30.0924 1.448 29.591 1.384 28.9084 1.384C28.8657 1.384 28.8444 1.32 28.8444 1.192C28.8444 1.064 28.8657 1 28.9084 1L30.6364 1.032C31.6177 1.07467 32.407 1.096 33.0044 1.096C33.6657 1.096 34.487 1.07467 35.4684 1.032L37.1004 1C37.1644 1 37.1964 1.064 37.1964 1.192C37.1964 1.32 37.1644 1.384 37.1004 1.384C36.439 1.384 35.9484 1.448 35.6284 1.576C35.3084 1.704 35.095 1.928 34.9884 2.248C34.8817 2.54667 34.8284 3.016 34.8284 3.656V18.408ZM52.5499 21.384C50.2032 21.384 48.1552 20.936 46.4059 20.04C44.6565 19.144 43.3232 17.928 42.4059 16.392C41.4885 14.8347 41.0299 13.1067 41.0299 11.208C41.0299 9.16 41.5525 7.336 42.5979 5.736C43.6645 4.11467 45.1152 2.86667 46.9499 1.992C48.8059 1.096 50.8752 0.647999 53.1579 0.647999C54.1605 0.647999 55.1739 0.733332 56.1979 0.903999C57.2219 1.05333 58.0432 1.256 58.6619 1.512C58.8539 1.576 58.9712 1.66133 59.0139 1.768C59.0779 1.85333 59.1205 2.01333 59.1419 2.248L59.5579 6.696C59.5579 6.76 59.5045 6.80267 59.3979 6.824C59.2912 6.84533 59.2165 6.81333 59.1739 6.728C58.4272 5.08533 57.3925 3.80533 56.0699 2.888C54.7685 1.97067 53.2752 1.512 51.5899 1.512C49.4139 1.512 47.7499 2.26933 46.5979 3.784C45.4672 5.29867 44.9019 7.368 44.9019 9.992C44.9019 12.104 45.2645 13.992 45.9899 15.656C46.7152 17.2987 47.7179 18.5787 48.9979 19.496C50.2992 20.392 51.7499 20.84 53.3499 20.84C54.2245 20.84 54.8965 20.744 55.3659 20.552C55.8352 20.36 56.1765 19.9867 56.3899 19.432C56.6032 18.8773 56.7099 18.056 56.7099 16.968C56.7099 15.8587 56.6459 15.0907 56.5179 14.664C56.3899 14.216 56.1125 13.9173 55.6859 13.768C55.2805 13.6187 54.5659 13.544 53.5419 13.544C53.4139 13.544 53.3499 13.4587 53.3499 13.288C53.3499 13.224 53.3605 13.1707 53.3819 13.128C53.4245 13.064 53.4672 13.032 53.5099 13.032C55.3232 13.1387 56.7845 13.192 57.8939 13.192C58.9819 13.192 60.1125 13.16 61.2859 13.096C61.3285 13.096 61.3605 13.128 61.3819 13.192C61.4245 13.2347 61.4459 13.2773 61.4459 13.32C61.4459 13.4693 61.3925 13.544 61.2859 13.544C60.9019 13.5227 60.6352 13.5973 60.4859 13.768C60.3365 13.9173 60.2405 14.2373 60.1979 14.728C60.1552 15.1973 60.1339 16.0507 60.1339 17.288C60.1339 18.248 60.1659 18.9307 60.2299 19.336C60.3152 19.7413 60.3579 19.9973 60.3579 20.104C60.3579 20.232 60.3259 20.3173 60.2619 20.36C60.2192 20.4027 60.1232 20.4453 59.9739 20.488C57.2219 21.0853 54.7472 21.384 52.5499 21.384ZM86.5579 1C86.6005 1 86.6219 1.064 86.6219 1.192C86.6219 1.32 86.6005 1.384 86.5579 1.384C85.7045 1.384 85.0325 1.72533 84.5419 2.408C84.0512 3.06933 83.8059 3.96533 83.8059 5.096V21.48C83.8059 21.544 83.7525 21.5867 83.6459 21.608C83.5605 21.6293 83.4965 21.6187 83.4539 21.576L68.4459 4.488V16.936C68.4459 18.0667 68.6805 18.9627 69.1499 19.624C69.6192 20.2853 70.2699 20.616 71.1019 20.616C71.1445 20.616 71.1659 20.68 71.1659 20.808C71.1659 20.936 71.1445 21 71.1019 21C70.5045 21 70.0459 20.9893 69.7259 20.968L67.9979 20.936L66.0139 20.968C65.6512 20.9893 65.1285 21 64.4459 21C64.3819 21 64.3499 20.936 64.3499 20.808C64.3499 20.68 64.3819 20.616 64.4459 20.616C65.3845 20.616 66.1205 20.2853 66.6539 19.624C67.2085 18.9627 67.4859 18.0667 67.4859 16.936V3.4C66.7819 2.632 66.1739 2.10933 65.6619 1.832C65.1712 1.53333 64.6592 1.384 64.1259 1.384C64.0832 1.384 64.0619 1.32 64.0619 1.192C64.0619 1.064 64.0832 1 64.1259 1L65.4699 1.032C65.7472 1.05333 66.1525 1.064 66.6859 1.064L69.1179 1.032C69.4165 1.01067 69.7792 1 70.2059 1C70.3765 1 70.5045 1.04267 70.5899 1.128C70.6752 1.21333 70.8245 1.39467 71.0379 1.672C71.4005 2.16267 71.6565 2.49333 71.8059 2.664L82.8779 15.432V5.096C82.8779 3.944 82.6432 3.03733 82.1739 2.376C81.7045 1.71467 81.0539 1.384 80.2219 1.384C80.1792 1.384 80.1579 1.32 80.1579 1.192C80.1579 1.064 80.1792 1 80.2219 1L81.5979 1.032C82.2805 1.07467 82.8565 1.096 83.3259 1.096C83.7525 1.096 84.3499 1.07467 85.1179 1.032L86.5579 1ZM99.6251 21.384C97.6411 21.384 95.8705 20.9253 94.3131 20.008C92.7771 19.0693 91.5825 17.8107 90.7291 16.232C89.8971 14.632 89.4811 12.8933 89.4811 11.016C89.4811 8.81867 90.0358 6.94133 91.1451 5.384C92.2545 3.80533 93.6731 2.62133 95.4011 1.832C97.1505 1.04267 98.9318 0.647999 100.745 0.647999C102.772 0.647999 104.553 1.128 106.089 2.088C107.625 3.02667 108.798 4.27467 109.609 5.832C110.441 7.38933 110.857 9.04267 110.857 10.792C110.857 12.7333 110.345 14.5147 109.321 16.136C108.297 17.7573 106.921 19.0373 105.193 19.976C103.486 20.9147 101.63 21.384 99.6251 21.384ZM100.681 20.584C101.876 20.584 102.942 20.2427 103.881 19.56C104.841 18.856 105.588 17.8427 106.121 16.52C106.654 15.176 106.921 13.576 106.921 11.72C106.921 9.75733 106.622 8.008 106.025 6.472C105.428 4.91467 104.564 3.69867 103.433 2.824C102.302 1.94933 100.98 1.512 99.4651 1.512C97.5238 1.512 96.0305 2.248 94.9851 3.72C93.9398 5.17067 93.4171 7.208 93.4171 9.832C93.4171 11.9013 93.7265 13.7573 94.3451 15.4C94.9851 17.0213 95.8491 18.2907 96.9371 19.208C98.0465 20.1253 99.2945 20.584 100.681 20.584ZM136.029 20.616C136.072 20.616 136.093 20.68 136.093 20.808C136.093 20.936 136.072 21 136.029 21H130.333C129.864 21 128.989 20.1253 127.709 18.376C126.429 16.6053 124.882 14.1413 123.069 10.984C122.898 11.0053 122.653 11.016 122.333 11.016C121.501 11.016 120.914 11.0053 120.573 10.984V18.408C120.573 19.0693 120.626 19.5493 120.733 19.848C120.84 20.1467 121.042 20.3493 121.341 20.456C121.661 20.5627 122.162 20.616 122.845 20.616C122.888 20.616 122.909 20.68 122.909 20.808C122.909 20.936 122.888 21 122.845 21C122.141 21 121.586 20.9893 121.181 20.968L118.749 20.936L116.413 20.968C115.986 20.9893 115.41 21 114.685 21C114.621 21 114.589 20.936 114.589 20.808C114.589 20.68 114.621 20.616 114.685 20.616C115.368 20.616 115.858 20.5627 116.157 20.456C116.477 20.3493 116.69 20.1467 116.797 19.848C116.925 19.528 116.989 19.048 116.989 18.408V3.592C116.989 2.952 116.936 2.48267 116.829 2.184C116.722 1.88533 116.509 1.68266 116.189 1.576C115.869 1.448 115.378 1.384 114.717 1.384C114.674 1.384 114.653 1.32 114.653 1.192C114.653 1.064 114.674 1 114.717 1L116.413 1.032C117.394 1.07467 118.173 1.096 118.749 1.096C119.368 1.096 120.05 1.064 120.797 1C121.032 0.978666 121.33 0.957332 121.693 0.935999C122.077 0.914666 122.525 0.903999 123.037 0.903999C125 0.903999 126.514 1.26667 127.581 1.992C128.669 2.696 129.213 3.688 129.213 4.968C129.213 5.94933 128.914 6.888 128.317 7.784C127.72 8.68 126.941 9.40533 125.981 9.96C127.688 12.648 129.117 14.7493 130.269 16.264C131.442 17.7787 132.477 18.888 133.373 19.592C134.29 20.2747 135.176 20.616 136.029 20.616ZM120.573 10.056C121.085 10.1413 121.704 10.184 122.429 10.184C123.197 10.184 123.805 10.0667 124.253 9.832C124.701 9.59733 125.021 9.192 125.213 8.616C125.426 8.04 125.533 7.22933 125.533 6.184C125.533 4.43467 125.277 3.22933 124.765 2.568C124.253 1.90667 123.517 1.576 122.557 1.576C121.832 1.576 121.32 1.736 121.021 2.056C120.722 2.376 120.573 2.90933 120.573 3.656V10.056ZM152.549 15.912C152.549 15.8693 152.592 15.848 152.677 15.848C152.741 15.848 152.794 15.8693 152.837 15.912C152.901 15.9333 152.933 15.9547 152.933 15.976C152.72 17.64 152.613 19.1547 152.613 20.52C152.613 20.6907 152.581 20.8187 152.517 20.904C152.453 20.968 152.325 21 152.133 21H137.989C137.925 21 137.893 20.936 137.893 20.808C137.893 20.68 137.925 20.616 137.989 20.616C138.672 20.616 139.162 20.5627 139.461 20.456C139.781 20.3493 139.994 20.1467 140.101 19.848C140.208 19.528 140.261 19.048 140.261 18.408V3.592C140.261 2.952 140.208 2.48267 140.101 2.184C139.994 1.88533 139.781 1.68266 139.461 1.576C139.141 1.448 138.65 1.384 137.989 1.384C137.925 1.384 137.893 1.32 137.893 1.192C137.893 1.064 137.925 1 137.989 1H151.557C151.77 1 151.877 1.096 151.877 1.288L151.941 5.544C151.941 5.58667 151.877 5.61867 151.749 5.64C151.642 5.66133 151.578 5.64 151.557 5.576C151.216 4.33867 150.64 3.42133 149.829 2.824C149.018 2.22667 147.952 1.928 146.629 1.928H145.669C145.029 1.928 144.56 2.06667 144.261 2.344C143.962 2.62133 143.813 3.048 143.813 3.624V10.152H146.469C147.706 10.152 148.656 9.93867 149.317 9.512C149.978 9.08533 150.309 8.488 150.309 7.72C150.309 7.656 150.362 7.624 150.469 7.624C150.597 7.624 150.661 7.656 150.661 7.72L150.629 10.6L150.661 12.136C150.704 12.8613 150.725 13.4373 150.725 13.864C150.725 13.9067 150.661 13.928 150.533 13.928C150.405 13.928 150.341 13.9067 150.341 13.864C150.341 12.9893 150 12.3067 149.317 11.816C148.656 11.304 147.696 11.048 146.437 11.048H143.813V18.28C143.813 18.8987 143.93 19.3573 144.165 19.656C144.4 19.9547 144.773 20.104 145.285 20.104H146.341C148.005 20.104 149.338 19.7627 150.341 19.08C151.344 18.3973 152.08 17.3413 152.549 15.912ZM160.861 4.232C160.861 5 161.053 5.68267 161.437 6.28C161.842 6.87733 162.333 7.4 162.909 7.848C163.485 8.296 164.264 8.84 165.245 9.48C166.312 10.1627 167.165 10.76 167.805 11.272C168.445 11.784 168.989 12.4133 169.437 13.16C169.885 13.8853 170.109 14.728 170.109 15.688C170.109 16.7973 169.81 17.7893 169.213 18.664C168.616 19.5173 167.784 20.1893 166.717 20.68C165.672 21.1493 164.498 21.384 163.197 21.384C162.237 21.384 161.234 21.256 160.189 21C159.144 20.7227 158.44 20.424 158.077 20.104C157.97 20.0187 157.885 19.944 157.821 19.88C157.778 19.7947 157.757 19.6667 157.757 19.496L157.661 14.408V14.376C157.661 14.2907 157.714 14.248 157.821 14.248C157.928 14.2267 157.992 14.2587 158.013 14.344C158.653 15.6453 159.208 16.7013 159.677 17.512C160.168 18.3227 160.776 19.0373 161.501 19.656C162.248 20.2747 163.09 20.584 164.029 20.584C164.882 20.584 165.586 20.36 166.141 19.912C166.696 19.4427 166.973 18.6533 166.973 17.544C166.973 16.6053 166.76 15.784 166.333 15.08C165.928 14.376 165.426 13.7787 164.829 13.288C164.232 12.7973 163.41 12.2107 162.365 11.528C161.341 10.8667 160.541 10.3013 159.965 9.832C159.41 9.36267 158.93 8.79733 158.525 8.136C158.12 7.47467 157.917 6.696 157.917 5.8C157.917 4.66933 158.237 3.72 158.877 2.952C159.538 2.16267 160.381 1.58667 161.405 1.224C162.429 0.839999 163.506 0.647999 164.637 0.647999C165.384 0.647999 166.141 0.722666 166.909 0.872C167.677 0.999999 168.296 1.16 168.765 1.352C168.957 1.43733 169.085 1.53333 169.149 1.64C169.213 1.72533 169.245 1.84267 169.245 1.992V6.696C169.245 6.76 169.192 6.81333 169.085 6.856C168.978 6.87733 168.914 6.856 168.893 6.792L168.637 6.184C168.104 4.84 167.474 3.69867 166.749 2.76C166.045 1.82133 165.053 1.352 163.773 1.352C162.92 1.352 162.216 1.59733 161.661 2.088C161.128 2.57867 160.861 3.29333 160.861 4.232Z" fill="black"/>
</svg>
