<svg width="113" height="81" viewBox="0 0 113 81" fill="none" xmlns="http://www.w3.org/2000/svg">
<g filter="url(#filter0_d_2202_3523)">
<path d="M8.48671 50C10.8864 50 16.7393 49.4732 22.0069 45.5518C26.221 42.3912 28.9719 37.7674 30.3766 31.6804V50H35.9368V9.20529H30.3766V24.3643C29.206 47.0735 13.5202 49.005 8.48671 49.005V9.20529H2.92645V50H8.48671ZM41.7934 50H58.4741C69.5946 50 74.6281 47.2491 74.6281 37.0651C74.6281 28.0516 67.4876 24.2472 58.4741 24.2472H47.3536V10.1417H70.5896V9.20529H41.7934V50ZM47.3536 48.9465V25.3008H58.4741C64.5611 25.3008 68.8923 28.8125 68.8923 37.0651C68.8923 45.3762 66.6097 48.9465 58.4741 48.9465H47.3536ZM85.1917 49.9415V29.1637H91.0446C99.7654 29.1637 103.98 33.846 103.98 47.6588V50H110.359V47.6588C110.359 36.0701 104.975 29.866 94.6734 28.5784L106.672 9.20529H105.56L93.6199 28.4613C92.5664 28.4028 91.5128 28.3443 90.4008 28.3443H85.1917V9.20529H79.6315V49.9415H85.1917Z" fill="#F4CD7B"/>
</g>
<path d="M4.66014 67.0314V62.4307L1.51228 67.0314H1.02799V61.3814H1.59299V65.9821L4.74085 61.3814H5.22514V67.0314H4.66014ZM9.29061 62.9957H9.82333V67.0314H9.29061V65.2719H6.96604V67.0314H6.43333V62.9957H6.96604V64.7553H9.29061V62.9957ZM12.8305 67.1283C12.2225 67.1283 11.7166 66.9265 11.3131 66.5229C10.9095 66.114 10.7077 65.6109 10.7077 65.0136C10.7077 64.4163 10.9095 63.9159 11.3131 63.5123C11.7166 63.1033 12.2225 62.8989 12.8305 62.8989C13.2287 62.8989 13.5865 62.9957 13.904 63.1894C14.2215 63.3778 14.4529 63.6334 14.5981 63.9562L14.1623 64.2064C14.0547 63.9643 13.8798 63.7733 13.6376 63.6334C13.4009 63.4881 13.1318 63.4154 12.8305 63.4154C12.3839 63.4154 12.0072 63.5715 11.7005 63.8836C11.3938 64.1903 11.2404 64.567 11.2404 65.0136C11.2404 65.4602 11.3938 65.8396 11.7005 66.1516C12.0072 66.4584 12.3839 66.6117 12.8305 66.6117C13.1318 66.6117 13.4009 66.5418 13.6376 66.4019C13.8744 66.2566 14.06 66.0629 14.1946 65.8207L14.6385 66.079C14.4717 66.4019 14.2269 66.6575 13.904 66.8458C13.5811 67.0341 13.2233 67.1283 12.8305 67.1283ZM18.2302 62.9957V63.5123H16.8016V67.0314H16.2689V63.5123H14.8402V62.9957H18.2302ZM21.8174 62.9957H22.2694V67.0314H21.7367V63.9239L19.3314 67.0314H18.8794V62.9957H19.4121V66.1032L21.8174 62.9957ZM26.3017 62.9957V63.5123H24.873V67.0314H24.3403V63.5123H22.9117V62.9957H26.3017ZM29.8565 62.9957H30.4215L28.6943 67.4027C28.5382 67.8009 28.3149 68.113 28.0243 68.339C27.7391 68.5704 27.419 68.6726 27.0638 68.6457V68.1453C27.5481 68.1991 27.9167 67.9193 28.1696 67.3059L28.2745 67.0556L26.4665 62.9957H27.0315L28.549 66.3776L29.8565 62.9957ZM33.9711 62.9957V63.5123H32.5424V67.0314H32.0097V63.5123H30.5811V62.9957H33.9711ZM38.8174 63.6414C39.2856 63.6414 39.6837 63.8082 40.012 64.1419C40.3456 64.4755 40.5124 64.8737 40.5124 65.3364C40.5124 65.8046 40.3456 66.2055 40.012 66.5391C39.6837 66.8673 39.2856 67.0314 38.8174 67.0314H36.7188V61.3814H40.0281V61.9141H37.2838V63.6414H38.8174ZM38.8174 66.4987C39.1295 66.4987 39.3959 66.3857 39.6165 66.1597C39.8371 65.9337 39.9474 65.6593 39.9474 65.3364C39.9474 65.019 39.8371 64.7472 39.6165 64.5212C39.3959 64.2898 39.1295 64.1741 38.8174 64.1741H37.2838V66.4987H38.8174ZM44.7415 66.5229C44.3326 66.9265 43.8321 67.1283 43.2402 67.1283C42.6483 67.1283 42.1452 66.9265 41.7309 66.5229C41.3219 66.114 41.1175 65.6109 41.1175 65.0136C41.1175 64.4163 41.3219 63.9159 41.7309 63.5123C42.1452 63.1033 42.6483 62.8989 43.2402 62.8989C43.8321 62.8989 44.3326 63.1033 44.7415 63.5123C45.1559 63.9159 45.363 64.4163 45.363 65.0136C45.363 65.6109 45.1559 66.114 44.7415 66.5229ZM42.1102 66.1516C42.417 66.4584 42.7936 66.6117 43.2402 66.6117C43.6869 66.6117 44.0635 66.4584 44.3702 66.1516C44.677 65.8396 44.8303 65.4602 44.8303 65.0136C44.8303 64.567 44.677 64.1903 44.3702 63.8836C44.0635 63.5715 43.6869 63.4154 43.2402 63.4154C42.7936 63.4154 42.417 63.5715 42.1102 63.8836C41.8035 64.1903 41.6502 64.567 41.6502 65.0136C41.6502 65.4602 41.8035 65.8396 42.1102 66.1516ZM48.8373 62.9957V63.5123H46.7872V67.0314H46.2545V62.9957H48.8373ZM52.7993 62.9957H53.332V67.0314H52.7993V66.2404C52.428 66.8323 51.8845 67.1283 51.1688 67.1283C50.5931 67.1283 50.1007 66.9238 49.6918 66.5149C49.2882 66.1059 49.0864 65.6055 49.0864 65.0136C49.0864 64.4217 49.2882 63.9212 49.6918 63.5123C50.1007 63.1033 50.5931 62.8989 51.1688 62.8989C51.8845 62.8989 52.428 63.1948 52.7993 63.7867V62.9957ZM50.0792 66.1516C50.3859 66.4584 50.7626 66.6117 51.2092 66.6117C51.6558 66.6117 52.0325 66.4584 52.3392 66.1516C52.6459 65.8396 52.7993 65.4602 52.7993 65.0136C52.7993 64.567 52.6459 64.1903 52.3392 63.8836C52.0325 63.5715 51.6558 63.4154 51.2092 63.4154C50.7626 63.4154 50.3859 63.5715 50.0792 63.8836C49.7725 64.1903 49.6191 64.567 49.6191 65.0136C49.6191 65.4602 49.7725 65.8396 50.0792 66.1516ZM57.3656 62.9957V63.5123H55.937V67.0314H55.4043V63.5123H53.9756V62.9957H57.3656ZM59.6533 64.5293C60.03 64.5293 60.3474 64.6477 60.6057 64.8844C60.8694 65.1158 61.0012 65.4145 61.0012 65.7804C61.0012 66.1463 60.8694 66.4476 60.6057 66.6844C60.3474 66.9157 60.03 67.0314 59.6533 67.0314H58.0148V62.9957H58.5475V64.5293H59.6533ZM61.5662 62.9957H62.0989V67.0314H61.5662V62.9957ZM59.6533 66.5149C59.8793 66.5149 60.0703 66.4476 60.2264 66.3131C60.3878 66.1786 60.4685 66.001 60.4685 65.7804C60.4685 65.5597 60.3878 65.3822 60.2264 65.2476C60.0703 65.1131 59.8793 65.0459 59.6533 65.0459H58.5475V66.5149H59.6533ZM66.6229 67.0314H65.9852L64.7261 65.3687L63.4669 67.0314H62.8293L64.4113 64.9409L62.9342 62.9957H63.5719L64.7261 64.5212L65.8803 62.9957H66.5179L65.0489 64.9409L66.6229 67.0314ZM72.3032 62.9957H72.7552V67.0314H72.2225V63.9239L69.8172 67.0314H69.3652V62.9957H69.898V66.1032L72.3032 62.9957ZM79.9353 67.0314H79.1928L76.5453 64.2952V67.0314H75.9803V61.3814H76.5453V63.9643L79.1121 61.3814H79.8546L77.1426 64.1257L79.9353 67.0314ZM82.7448 62.8989C83.3206 62.8989 83.8103 63.1033 84.2138 63.5123C84.6228 63.9212 84.8273 64.4217 84.8273 65.0136C84.8273 65.6055 84.6228 66.1059 84.2138 66.5149C83.8103 66.9238 83.3206 67.1283 82.7448 67.1283C82.0292 67.1283 81.4857 66.8323 81.1144 66.2404V68.6457H80.5817V62.9957H81.1144V63.7867C81.4857 63.1948 82.0292 62.8989 82.7448 62.8989ZM81.5745 66.1516C81.8812 66.4584 82.2579 66.6117 82.7045 66.6117C83.1511 66.6117 83.5278 66.4584 83.8345 66.1516C84.1412 65.8396 84.2946 65.4602 84.2946 65.0136C84.2946 64.567 84.1412 64.1903 83.8345 63.8836C83.5278 63.5715 83.1511 63.4154 82.7045 63.4154C82.2579 63.4154 81.8812 63.5715 81.5745 63.8836C81.2678 64.1903 81.1144 64.567 81.1144 65.0136C81.1144 65.4602 81.2678 65.8396 81.5745 66.1516ZM89.1838 62.9957H89.7165V67.0314H89.1838V66.2404C88.8125 66.8323 88.269 67.1283 87.5533 67.1283C86.9776 67.1283 86.4852 66.9238 86.0763 66.5149C85.6727 66.1059 85.4709 65.6055 85.4709 65.0136C85.4709 64.4217 85.6727 63.9212 86.0763 63.5123C86.4852 63.1033 86.9776 62.8989 87.5533 62.8989C88.269 62.8989 88.8125 63.1948 89.1838 63.7867V62.9957ZM86.4637 66.1516C86.7704 66.4584 87.1471 66.6117 87.5937 66.6117C88.0403 66.6117 88.417 66.4584 88.7237 66.1516C89.0304 65.8396 89.1838 65.4602 89.1838 65.0136C89.1838 64.567 89.0304 64.1903 88.7237 63.8836C88.417 63.5715 88.0403 63.4154 87.5937 63.4154C87.1471 63.4154 86.7704 63.5715 86.4637 63.8836C86.157 64.1903 86.0036 64.567 86.0036 65.0136C86.0036 65.4602 86.157 65.8396 86.4637 66.1516ZM92.725 67.1283C92.117 67.1283 91.6112 66.9265 91.2076 66.5229C90.804 66.114 90.6022 65.6109 90.6022 65.0136C90.6022 64.4163 90.804 63.9159 91.2076 63.5123C91.6112 63.1033 92.117 62.8989 92.725 62.8989C93.1232 62.8989 93.4811 62.9957 93.7985 63.1894C94.116 63.3778 94.3474 63.6334 94.4927 63.9562L94.0568 64.2064C93.9492 63.9643 93.7743 63.7733 93.5322 63.6334C93.2954 63.4881 93.0264 63.4154 92.725 63.4154C92.2784 63.4154 91.9017 63.5715 91.595 63.8836C91.2883 64.1903 91.135 64.567 91.135 65.0136C91.135 65.4602 91.2883 65.8396 91.595 66.1516C91.9017 66.4584 92.2784 66.6117 92.725 66.6117C93.0264 66.6117 93.2954 66.5418 93.5322 66.4019C93.7689 66.2566 93.9546 66.0629 94.0891 65.8207L94.533 66.079C94.3662 66.4019 94.1214 66.6575 93.7985 66.8458C93.4757 67.0341 93.1178 67.1283 92.725 67.1283ZM98.2359 62.9957H98.6879V67.0314H98.1552V63.9239L95.7499 67.0314H95.2979V62.9957H95.8306V66.1032L98.2359 62.9957ZM102.381 64.9571C102.822 65.1185 103.043 65.4333 103.043 65.9014C103.043 66.2297 102.933 66.5014 102.712 66.7166C102.497 66.9265 102.185 67.0314 101.776 67.0314H99.8144V62.9957H101.614C102.007 62.9957 102.311 63.098 102.526 63.3024C102.742 63.5015 102.849 63.7598 102.849 64.0773C102.849 64.4809 102.693 64.7741 102.381 64.9571ZM101.614 63.5123H100.347V64.7391H101.614C102.082 64.7391 102.317 64.5293 102.317 64.1096C102.317 63.9212 102.255 63.776 102.131 63.6737C102.013 63.5661 101.84 63.5123 101.614 63.5123ZM101.776 66.5149C102.013 66.5149 102.193 66.4584 102.317 66.3454C102.446 66.2324 102.51 66.0736 102.51 65.8691C102.51 65.6808 102.446 65.5328 102.317 65.4252C102.193 65.3122 102.013 65.2557 101.776 65.2557H100.347V66.5149H101.776ZM105.489 64.5293C105.865 64.5293 106.183 64.6477 106.441 64.8844C106.705 65.1158 106.837 65.4145 106.837 65.7804C106.837 66.1463 106.705 66.4476 106.441 66.6844C106.183 66.9157 105.865 67.0314 105.489 67.0314H103.85V62.9957H104.383V64.5293H105.489ZM107.402 62.9957H107.934V67.0314H107.402V62.9957ZM105.489 66.5149C105.715 66.5149 105.906 66.4476 106.062 66.3131C106.223 66.1786 106.304 66.001 106.304 65.7804C106.304 65.5597 106.223 65.3822 106.062 65.2476C105.906 65.1131 105.715 65.0459 105.489 65.0459H104.383V66.5149H105.489ZM112.458 67.0314H111.821L110.561 65.3687L109.302 67.0314H108.665L110.247 64.9409L108.77 62.9957H109.407L110.561 64.5212L111.716 62.9957H112.353L110.884 64.9409L112.458 67.0314ZM11.5209 75.757H14.4266V76.0314H11.2222V70.3814H14.3862V70.6559H11.5209V73.045H14.1844V73.3194H11.5209V75.757ZM18.3986 76.0314H18.0112L15.7673 74.0216V76.0314H15.4767V71.9957H15.7673V73.8521L17.9304 71.9957H18.3179L16.0659 73.9329L18.3986 76.0314ZM22.5302 71.9957H22.8127V76.0314H22.5302V74.9499C22.3687 75.305 22.1239 75.5902 21.7957 75.8054C21.4674 76.0153 21.0988 76.1202 20.6899 76.1202C20.1087 76.1202 19.6137 75.9184 19.2047 75.5149C18.7958 75.1059 18.5913 74.6055 18.5913 74.0136C18.5913 73.4217 18.7958 72.9239 19.2047 72.5204C19.6137 72.1114 20.1087 71.9069 20.6899 71.9069C21.0988 71.9069 21.4674 72.0146 21.7957 72.2298C22.1239 72.4396 22.3687 72.7221 22.5302 73.0773V71.9957ZM19.3984 75.3211C19.7536 75.6709 20.1867 75.8458 20.6979 75.8458C21.2091 75.8458 21.6423 75.6709 21.9974 75.3211C22.3526 74.966 22.5302 74.5301 22.5302 74.0136C22.5302 73.497 22.3526 73.0638 21.9974 72.7141C21.6423 72.3589 21.2091 72.1814 20.6979 72.1814C20.1867 72.1814 19.7536 72.3589 19.3984 72.7141C19.0487 73.0638 18.8738 73.497 18.8738 74.0136C18.8738 74.5301 19.0487 74.966 19.3984 75.3211ZM26.8994 71.9957V72.2621H25.4062V76.0314H25.1156V72.2621H23.6224V71.9957H26.8994ZM29.32 71.9069C29.9119 71.9069 30.3908 72.1168 30.7567 72.5365C31.128 72.9562 31.3136 73.454 31.3136 74.0297C31.3136 74.0943 31.3109 74.14 31.3056 74.1669H27.5523C27.5846 74.6674 27.7703 75.0736 28.1093 75.3857C28.4483 75.6924 28.8653 75.8458 29.3603 75.8458C29.6993 75.8458 29.998 75.7758 30.2563 75.6359C30.5199 75.4906 30.7163 75.2996 30.8455 75.0629L31.0957 75.2081C30.9343 75.488 30.7002 75.7113 30.3935 75.8781C30.0922 76.0395 29.7478 76.1202 29.3603 76.1202C28.7469 76.1202 28.2438 75.9238 27.851 75.531C27.4582 75.1328 27.2618 74.627 27.2618 74.0136C27.2618 73.4163 27.4555 72.9159 27.8429 72.5123C28.2303 72.1087 28.7227 71.9069 29.32 71.9069ZM29.32 72.1814C28.8249 72.1814 28.4106 72.3428 28.077 72.6656C27.7488 72.9831 27.5712 73.3948 27.5443 73.9006H31.0231C30.9854 73.3786 30.8051 72.9616 30.4823 72.6495C30.1648 72.3374 29.7774 72.1814 29.32 72.1814ZM34.4756 71.9069C35.0568 71.9069 35.5518 72.1114 35.9608 72.5204C36.3697 72.9239 36.5742 73.4217 36.5742 74.0136C36.5742 74.6055 36.3697 75.1059 35.9608 75.5149C35.5518 75.9184 35.0568 76.1202 34.4756 76.1202C34.0613 76.1202 33.6927 76.0153 33.3698 75.8054C33.047 75.5956 32.8021 75.3131 32.6353 74.9579V77.6457H32.3448V71.9957H32.6353V73.0692C32.8021 72.7141 33.047 72.4316 33.3698 72.2217C33.6927 72.0119 34.0613 71.9069 34.4756 71.9069ZM33.16 75.3211C33.5151 75.6709 33.9483 75.8458 34.4595 75.8458C34.9707 75.8458 35.4011 75.6709 35.7509 75.3211C36.106 74.966 36.2836 74.5301 36.2836 74.0136C36.2836 73.497 36.106 73.0638 35.7509 72.7141C35.4011 72.3589 34.9707 72.1814 34.4595 72.1814C33.9483 72.1814 33.5151 72.3589 33.16 72.7141C32.8102 73.0638 32.6353 73.497 32.6353 74.0136C32.6353 74.5301 32.8102 74.966 33.16 75.3211ZM40.6448 71.9957H40.9031V76.0314H40.6206V72.48L37.8763 76.0314H37.618V71.9957H37.9086V75.5471L40.6448 71.9957ZM45.2474 71.9957H45.5299V76.0314H45.2474V74.1508H42.5354V76.0314H42.2449V71.9957H42.5354V73.8764H45.2474V71.9957ZM48.4295 73.5939C48.7954 73.5939 49.1075 73.7069 49.3658 73.9329C49.6241 74.1535 49.7533 74.4441 49.7533 74.8046C49.7533 75.1651 49.6241 75.4611 49.3658 75.6924C49.1075 75.9184 48.7954 76.0314 48.4295 76.0314H46.8718V71.9957H47.1623V73.5939H48.4295ZM50.4232 71.9957H50.7138V76.0314H50.4232V71.9957ZM48.4295 75.7651C48.7255 75.7651 48.973 75.6763 49.1721 75.4987C49.3712 75.3158 49.4708 75.0844 49.4708 74.8046C49.4708 74.5301 49.3712 74.3041 49.1721 74.1266C48.973 73.949 48.7255 73.8602 48.4295 73.8602H47.1623V75.7651H48.4295ZM59.0661 75.2727C58.5011 75.8377 57.815 76.1202 57.0079 76.1202C56.2007 76.1202 55.512 75.8377 54.9416 75.2727C54.3766 74.7023 54.0941 74.0136 54.0941 73.2064C54.0941 72.3993 54.3766 71.7132 54.9416 71.1482C55.512 70.5778 56.2007 70.2926 57.0079 70.2926C57.815 70.2926 58.5011 70.5778 59.0661 71.1482C59.6365 71.7132 59.9217 72.3993 59.9217 73.2064C59.9217 74.0136 59.6365 74.7023 59.0661 75.2727ZM55.1515 75.0709C55.6627 75.5821 56.2815 75.8377 57.0079 75.8377C57.7343 75.8377 58.3504 75.5821 58.8562 75.0709C59.3674 74.5544 59.623 73.9329 59.623 73.2064C59.623 72.48 59.3674 71.8612 58.8562 71.35C58.3504 70.8334 57.7343 70.5751 57.0079 70.5751C56.2815 70.5751 55.6627 70.8334 55.1515 71.35C54.6457 71.8612 54.3927 72.48 54.3927 73.2064C54.3927 73.9329 54.6457 74.5544 55.1515 75.0709ZM62.7477 76.1202C62.1665 76.1202 61.6849 75.9319 61.3029 75.5552C60.9208 75.1732 60.7298 74.6727 60.7298 74.0539C60.7298 73.3921 60.824 72.8782 61.0123 72.5123C61.206 72.141 61.6015 71.8101 62.1988 71.5195C62.3387 71.4496 62.5082 71.3742 62.7073 71.2935C62.9118 71.2074 63.0705 71.1375 63.1835 71.0836C63.3019 71.0298 63.423 70.9653 63.5468 70.8899C63.6705 70.8146 63.7647 70.7312 63.8293 70.6397C63.8992 70.5429 63.9449 70.4299 63.9665 70.3007L64.1925 70.4299C64.1656 70.5698 64.1144 70.6962 64.0391 70.8092C63.9638 70.9168 63.8562 71.0137 63.7163 71.0998C63.5817 71.1805 63.4553 71.2505 63.3369 71.3096C63.2185 71.3635 63.0544 71.4334 62.8445 71.5195C62.6347 71.6056 62.4679 71.6782 62.3441 71.7374C61.919 71.9419 61.6096 72.1652 61.4159 72.4074C61.2222 72.6495 61.1011 72.9804 61.0527 73.4001C61.2464 73.0611 61.502 72.8056 61.8195 72.6334C62.1423 72.4558 62.4759 72.367 62.8203 72.367C63.353 72.367 63.7997 72.5446 64.1602 72.8997C64.5207 73.2549 64.701 73.7042 64.701 74.2476C64.701 74.7911 64.518 75.2404 64.1521 75.5956C63.7862 75.9453 63.3181 76.1202 62.7477 76.1202ZM62.7477 75.8458C63.2373 75.8458 63.6382 75.6978 63.9503 75.4019C64.2624 75.1005 64.4185 74.7158 64.4185 74.2476C64.4185 73.7795 64.2651 73.3948 63.9584 73.0934C63.6571 72.7867 63.2696 72.6334 62.7961 72.6334C62.3656 72.6334 61.9782 72.7733 61.6338 73.0531C61.2948 73.3275 61.0903 73.6773 61.0204 74.1024C61.0204 74.6136 61.1818 75.0333 61.5047 75.3615C61.8275 75.6844 62.2419 75.8458 62.7477 75.8458ZM67.8018 71.9069C68.3829 71.9069 68.878 72.1114 69.2869 72.5204C69.6959 72.9239 69.9004 73.4217 69.9004 74.0136C69.9004 74.6055 69.6959 75.1059 69.2869 75.5149C68.878 75.9184 68.3829 76.1202 67.8018 76.1202C67.3875 76.1202 67.0189 76.0153 66.696 75.8054C66.3731 75.5956 66.1283 75.3131 65.9615 74.9579V77.6457H65.6709V71.9957H65.9615V73.0692C66.1283 72.7141 66.3731 72.4316 66.696 72.2217C67.0189 72.0119 67.3875 71.9069 67.8018 71.9069ZM66.4861 75.3211C66.8413 75.6709 67.2745 75.8458 67.7856 75.8458C68.2968 75.8458 68.7273 75.6709 69.0771 75.3211C69.4322 74.966 69.6098 74.5301 69.6098 74.0136C69.6098 73.497 69.4322 73.0638 69.0771 72.7141C68.7273 72.3589 68.2968 72.1814 67.7856 72.1814C67.2745 72.1814 66.8413 72.3589 66.4861 72.7141C66.1364 73.0638 65.9615 73.497 65.9615 74.0136C65.9615 74.5301 66.1364 74.966 66.4861 75.3211ZM74.5924 71.9957H74.8749V76.0314H74.5924V74.9499C74.431 75.305 74.1862 75.5902 73.8579 75.8054C73.5297 76.0153 73.1611 76.1202 72.7522 76.1202C72.171 76.1202 71.676 75.9184 71.267 75.5149C70.8581 75.1059 70.6536 74.6055 70.6536 74.0136C70.6536 73.4217 70.8581 72.9239 71.267 72.5204C71.676 72.1114 72.171 71.9069 72.7522 71.9069C73.1611 71.9069 73.5297 72.0146 73.8579 72.2298C74.1862 72.4396 74.431 72.7221 74.5924 73.0773V71.9957ZM71.4607 75.3211C71.8159 75.6709 72.249 75.8458 72.7602 75.8458C73.2714 75.8458 73.7046 75.6709 74.0597 75.3211C74.4149 74.966 74.5924 74.5301 74.5924 74.0136C74.5924 73.497 74.4149 73.0638 74.0597 72.7141C73.7046 72.3589 73.2714 72.1814 72.7602 72.1814C72.249 72.1814 71.8159 72.3589 71.4607 72.7141C71.111 73.0638 70.9361 73.497 70.9361 74.0136C70.9361 74.5301 71.111 74.966 71.4607 75.3211ZM78.0173 73.9409C78.281 74.0109 78.4828 74.14 78.6227 74.3284C78.768 74.5113 78.8406 74.7266 78.8406 74.9741C78.8406 75.2916 78.7115 75.5633 78.4532 75.7893C78.2003 76.0099 77.8451 76.1202 77.3877 76.1202C76.5698 76.1202 76.056 75.8054 75.8461 75.1759L76.0802 75.0386C76.247 75.5767 76.6828 75.8458 77.3877 75.8458C77.7483 75.8458 78.0335 75.7651 78.2433 75.6036C78.4532 75.4422 78.5581 75.2297 78.5581 74.966C78.5581 74.7077 78.4666 74.5006 78.2837 74.3445C78.1007 74.1831 77.8559 74.1024 77.5492 74.1024H77.0326V73.836H77.4039C77.6998 73.836 77.9312 73.7607 78.098 73.61C78.2702 73.4593 78.3563 73.2602 78.3563 73.0127C78.3563 72.7706 78.2595 72.5715 78.0657 72.4154C77.872 72.2594 77.6218 72.1814 77.3151 72.1814C77.0299 72.1814 76.7851 72.2432 76.5806 72.367C76.3815 72.4908 76.2389 72.6603 76.1528 72.8755L75.9187 72.7383C76.0264 72.4854 76.1986 72.2836 76.4353 72.1329C76.6721 71.9823 76.9653 71.9069 77.3151 71.9069C77.7187 71.9069 78.0415 72.0146 78.2837 72.2298C78.5258 72.4396 78.6469 72.6952 78.6469 72.9966C78.6469 73.2064 78.5931 73.3975 78.4855 73.5696C78.3778 73.7365 78.2218 73.8602 78.0173 73.9409ZM83.016 75.7651H83.6618V77.113H83.3793V76.0314H79.8117V71.9957H80.1023V75.7651H82.7335V71.9957H83.016V75.7651ZM86.2862 76.1202C85.6997 76.1202 85.2019 75.9184 84.793 75.5149C84.384 75.1059 84.1795 74.6055 84.1795 74.0136C84.1795 73.4217 84.384 72.9239 84.793 72.5204C85.2019 72.1114 85.6997 71.9069 86.2862 71.9069C86.8781 71.9069 87.3785 72.1114 87.7875 72.5204C88.1964 72.9239 88.4009 73.4217 88.4009 74.0136C88.4009 74.6055 88.1964 75.1059 87.7875 75.5149C87.3785 75.9184 86.8781 76.1202 86.2862 76.1202ZM84.9867 75.3211C85.3418 75.6709 85.775 75.8458 86.2862 75.8458C86.7974 75.8458 87.2305 75.6709 87.5857 75.3211C87.9408 74.966 88.1184 74.5301 88.1184 74.0136C88.1184 73.497 87.9408 73.0638 87.5857 72.7141C87.2305 72.3589 86.7974 72.1814 86.2862 72.1814C85.775 72.1814 85.3418 72.3589 84.9867 72.7141C84.6369 73.0638 84.462 73.497 84.462 74.0136C84.462 74.5301 84.6369 74.966 84.9867 75.3211ZM91.865 73.9409C92.1126 74.0109 92.3009 74.1346 92.43 74.3122C92.5646 74.4898 92.6318 74.6996 92.6318 74.9418C92.6318 75.2593 92.5269 75.5202 92.317 75.7247C92.1072 75.9292 91.8032 76.0314 91.405 76.0314H89.4517V71.9957H91.2597C91.6364 71.9957 91.9242 72.0926 92.1233 72.2863C92.3278 72.48 92.43 72.7302 92.43 73.0369C92.43 73.4728 92.2417 73.7741 91.865 73.9409ZM91.2597 72.2621H89.7423V73.836H91.2597C91.5395 73.836 91.7574 73.7661 91.9135 73.6261C92.0695 73.4862 92.1475 73.2925 92.1475 73.045C92.1475 72.8029 92.0695 72.6118 91.9135 72.4719C91.7574 72.332 91.5395 72.2621 91.2597 72.2621ZM91.405 75.7651C91.7009 75.7651 91.9296 75.6924 92.091 75.5471C92.2579 75.3965 92.3413 75.1893 92.3413 74.9256C92.3413 74.6674 92.2579 74.4656 92.091 74.3203C91.9296 74.175 91.7009 74.1024 91.405 74.1024H89.7423V75.7651H91.405ZM95.4059 76.1202C94.8194 76.1202 94.3217 75.9184 93.9127 75.5149C93.5038 75.1059 93.2993 74.6055 93.2993 74.0136C93.2993 73.4217 93.5038 72.9239 93.9127 72.5204C94.3217 72.1114 94.8194 71.9069 95.4059 71.9069C95.9978 71.9069 96.4983 72.1114 96.9072 72.5204C97.3162 72.9239 97.5207 73.4217 97.5207 74.0136C97.5207 74.6055 97.3162 75.1059 96.9072 75.5149C96.4983 75.9184 95.9978 76.1202 95.4059 76.1202ZM94.1064 75.3211C94.4616 75.6709 94.8948 75.8458 95.4059 75.8458C95.9171 75.8458 96.3503 75.6709 96.7054 75.3211C97.0606 74.966 97.2382 74.5301 97.2382 74.0136C97.2382 73.497 97.0606 73.0638 96.7054 72.7141C96.3503 72.3589 95.9171 72.1814 95.4059 72.1814C94.8948 72.1814 94.4616 72.3589 94.1064 72.7141C93.7567 73.0638 93.5818 73.497 93.5818 74.0136C93.5818 74.5301 93.7567 74.966 94.1064 75.3211ZM99.2252 71.237V70.9949H101.219V71.237H99.2252ZM101.598 71.9957H101.857V76.0314H101.574V72.48L98.8297 76.0314H98.5715V71.9957H98.862V75.5471L101.598 71.9957Z" fill="white"/>
<defs>
<filter id="filter0_d_2202_3523" x="0.429033" y="9.20526" width="112.428" height="45.7892" filterUnits="userSpaceOnUse" color-interpolation-filters="sRGB">
<feFlood flood-opacity="0" result="BackgroundImageFix"/>
<feColorMatrix in="SourceAlpha" type="matrix" values="0 0 0 0 0 0 0 0 0 0 0 0 0 0 0 0 0 0 127 0" result="hardAlpha"/>
<feOffset dy="2.49724"/>
<feGaussianBlur stdDeviation="1.24862"/>
<feComposite in2="hardAlpha" operator="out"/>
<feColorMatrix type="matrix" values="0 0 0 0 0 0 0 0 0 0 0 0 0 0 0 0 0 0 0.25 0"/>
<feBlend mode="normal" in2="BackgroundImageFix" result="effect1_dropShadow_2202_3523"/>
<feBlend mode="normal" in="SourceGraphic" in2="effect1_dropShadow_2202_3523" result="shape"/>
</filter>
</defs>
</svg>
