<svg width="19" height="21" viewBox="0 0 19 21" fill="none" xmlns="http://www.w3.org/2000/svg">
<path d="M17.0518 15.5364L17.0514 15.536C17.0084 15.4893 16.9609 15.4389 16.9097 15.3845C16.5314 14.9829 15.9492 14.3649 15.4728 13.3877C14.9295 12.2731 14.5422 10.7478 14.5422 8.53125C14.5422 5.8345 12.6851 3.67793 10.1569 3.14583L9.36286 2.97871V2.16727V1.3125C9.36286 1.12706 9.21797 1 9.06821 1C8.91846 1 8.77357 1.12706 8.77357 1.3125V2.16727V2.97871L7.97952 3.14583C5.45131 3.67793 3.59418 5.8345 3.59418 8.53125C3.59418 10.7478 3.20689 12.2731 2.66358 13.3877C2.18726 14.3649 1.60504 14.9829 1.22668 15.3845C1.17554 15.4388 1.12812 15.4891 1.0852 15.5359C1.0494 15.5749 1.02949 15.6107 1.01783 15.6415C1.00589 15.6731 0.999779 15.7071 1.00001 15.7434L17.0518 15.5364ZM17.0518 15.5364C17.0871 15.5749 17.1069 15.6104 17.1185 15.6413C17.1305 15.6729 17.1367 15.7071 17.1364 15.7435L17.1364 15.744C17.1359 15.8283 17.1011 15.9154 17.0441 15.9764C16.9955 16.0285 16.9322 16.0625 16.8369 16.0625H1.29953C1.20432 16.0625 1.14107 16.0285 1.09255 15.9765C1.03561 15.9154 1.00059 15.8282 1.00001 15.7435L17.0518 15.5364ZM10.3215 19.375C10.0284 19.7575 9.5721 20 9.06821 20C8.56432 20 8.10803 19.7575 7.81488 19.375H10.3215Z" stroke="black" stroke-width="2"/>
</svg>
