<svg width="18" height="20" viewBox="0 0 18 20" fill="none" xmlns="http://www.w3.org/2000/svg">
<path d="M1.24999 0H11.8706L17.5 5.60752V18.75C17.5 19.4406 16.94 20 16.25 20H1.24999C0.559969 20 0 19.4406 0 18.75V1.24999C0 0.559387 0.560034 0 1.24999 0Z" fill="#323232"/>
<path d="M17.4819 5.62666H13.125C12.435 5.62666 11.875 5.06669 11.875 4.37667V0.0141602L17.4819 5.62666Z" fill="#121111"/>
<path d="M12.8137 9.47597C13.0231 9.47597 13.1256 9.29347 13.1256 9.1166C13.1256 8.93346 13.0187 8.75659 12.8137 8.75659H11.6212C11.388 8.75659 11.2581 8.94969 11.2581 9.16284V12.0935C11.2581 12.3547 11.4068 12.4997 11.608 12.4997C11.8081 12.4997 11.9574 12.3547 11.9574 12.0935V11.2891H12.6787C12.9025 11.2891 13.0143 11.106 13.0143 10.9241C13.0143 10.746 12.9025 10.5691 12.6787 10.5691H11.9574V9.47597H12.8137ZM8.78304 8.75659H7.91052C7.67364 8.75659 7.5055 8.9191 7.5055 9.16032V12.096C7.5055 12.3953 7.74736 12.4891 7.92048 12.4891H8.83613C9.91985 12.4891 10.6355 11.776 10.6355 10.6753C10.6349 9.5116 9.96118 8.75659 8.78304 8.75659ZM8.82494 11.7654H8.29304V9.48037H8.77243C9.49808 9.48037 9.81367 9.96726 9.81367 10.6391C9.81367 11.2679 9.50364 11.7654 8.82494 11.7654ZM5.62868 8.75659H4.76431C4.51992 8.75659 4.38367 8.91781 4.38367 9.16284V12.0935C4.38367 12.3547 4.53991 12.4997 4.74989 12.4997C4.95987 12.4997 5.11611 12.3547 5.11611 12.0935V11.2378H5.65797C6.32671 11.2378 6.8786 10.764 6.8786 10.0022C6.87866 9.25661 6.34618 8.75659 5.62868 8.75659ZM5.61432 10.5504H5.11617V9.44474H5.61432C5.92182 9.44474 6.11744 9.68472 6.11744 9.99785C6.1168 10.3104 5.92182 10.5504 5.61432 10.5504Z" fill="white"/>
</svg>
