<svg width="18" height="20" viewBox="0 0 18 20" fill="none" xmlns="http://www.w3.org/2000/svg">
<path d="M1.24999 0H11.8706L17.5 5.60752V18.75C17.5 19.4406 16.94 20 16.25 20H1.24999C0.559969 20 0 19.4406 0 18.75V1.24999C0 0.559387 0.560034 0 1.24999 0Z" fill="#DDC6E0"/>
<path d="M17.4819 5.62666H13.125C12.435 5.62666 11.875 5.06669 11.875 4.37667V0.0141602L17.4819 5.62666Z" fill="#EFEAEF"/>
<path d="M12.8138 9.476C13.0232 9.476 13.1257 9.2935 13.1257 9.11663C13.1257 8.93349 13.0188 8.75662 12.8138 8.75662H11.6213C11.3882 8.75662 11.2582 8.94972 11.2582 9.16287V12.0935C11.2582 12.3547 11.4069 12.4997 11.6082 12.4997C11.8082 12.4997 11.9576 12.3547 11.9576 12.0935V11.2891H12.6788C12.9026 11.2891 13.0145 11.106 13.0145 10.9241C13.0145 10.746 12.9026 10.5691 12.6788 10.5691H11.9576V9.476H12.8138ZM8.78316 8.75662H7.91064C7.67376 8.75662 7.50562 8.91914 7.50562 9.16035V12.096C7.50562 12.3954 7.74748 12.4891 7.9206 12.4891H8.83625C9.91998 12.4891 10.6356 11.776 10.6356 10.6754C10.635 9.51163 9.9613 8.75662 8.78316 8.75662ZM8.82507 11.7654H8.29316V9.4804H8.77255C9.4982 9.4804 9.81379 9.96729 9.81379 10.6391C9.81379 11.2679 9.50377 11.7654 8.82507 11.7654ZM5.6288 8.75662H4.76443C4.52005 8.75662 4.38379 8.91784 4.38379 9.16287V12.0935C4.38379 12.3547 4.54003 12.4997 4.75001 12.4997C4.95999 12.4997 5.11623 12.3547 5.11623 12.0935V11.2378H5.65809C6.32683 11.2378 6.87872 10.7641 6.87872 10.0022C6.87879 9.25664 6.3463 8.75662 5.6288 8.75662ZM5.61444 10.5504H5.1163V9.44477H5.61444C5.92194 9.44477 6.11757 9.68475 6.11757 9.99788C6.11692 10.3104 5.92194 10.5504 5.61444 10.5504Z" fill="#262626"/>
</svg>
