<svg width="15" height="15" viewBox="0 0 15 15" fill="none" xmlns="http://www.w3.org/2000/svg">
<path d="M11.4801 14.0699C11.3605 14.0699 11.2427 14.0408 11.1368 13.9853L7.37679 12.0086L3.61676 13.9853C3.49492 14.0493 3.35759 14.078 3.22029 14.0681C3.083 14.0582 2.95123 14.01 2.83986 13.9291C2.72849 13.8482 2.64198 13.7378 2.5901 13.6103C2.53822 13.4828 2.52304 13.3433 2.54628 13.2076L3.26449 9.02078L0.222691 6.05609C0.124151 5.95998 0.0544571 5.83823 0.0214843 5.70459C-0.0114884 5.57095 -0.00642493 5.43075 0.0361025 5.29984C0.0786298 5.16893 0.156926 5.05252 0.262142 4.96377C0.367358 4.87502 0.495299 4.81747 0.631508 4.79763L4.83529 4.18674L6.7151 0.377664C6.78304 0.262627 6.8798 0.16729 6.99584 0.101062C7.11187 0.0348329 7.24316 0 7.37677 0C7.51037 0 7.64166 0.0348329 7.7577 0.101062C7.87373 0.16729 7.97049 0.262627 8.03843 0.377664L9.91827 4.18667L14.122 4.79756C14.2583 4.81741 14.3862 4.87496 14.4914 4.96371C14.5966 5.05245 14.6749 5.16886 14.7175 5.29978C14.76 5.43069 14.765 5.57089 14.7321 5.70452C14.6991 5.83816 14.6294 5.95992 14.5309 6.05602L11.4891 9.02072L12.2073 13.2076C12.2254 13.3135 12.2202 13.422 12.1921 13.5257C12.1639 13.6294 12.1134 13.7257 12.0441 13.8078C11.9749 13.8899 11.8885 13.9559 11.7911 14.0012C11.6936 14.0465 11.5875 14.0699 11.48 14.0699L11.4801 14.0699Z" fill="#6DB533"/>
</svg>
