<svg width="62" height="62" viewBox="0 0 62 62" fill="none" xmlns="http://www.w3.org/2000/svg">
<path d="M31 0C13.879 0 0 13.879 0 31C0 48.121 13.879 62 31 62C48.121 62 62 48.121 62 31C62 13.879 48.121 0 31 0Z" fill="#40B3E0"/>
<path d="M46.0841 17.8323L40.5472 45.7486C40.5472 45.7486 39.7729 47.6846 37.6434 46.7553L24.866 36.9593L20.2199 34.7138L12.3987 32.0807C12.3987 32.0807 11.1984 31.6549 11.0822 30.7257C10.9662 29.7964 12.4375 29.2931 12.4375 29.2931L43.5285 17.0966C43.5285 17.0966 46.0841 15.9738 46.0841 17.8323Z" fill="white"/>
<path d="M23.8837 45.4354C23.8837 45.4354 23.5108 45.4005 23.046 43.929C22.5815 42.4577 20.2197 34.714 20.2197 34.714L38.9982 22.7887C38.9982 22.7887 40.0825 22.1304 40.0437 22.7887C40.0437 22.7887 40.2372 22.9047 39.6565 23.4467C39.0757 23.9889 24.9046 36.7273 24.9046 36.7273" fill="#D2E5F1"/>
<path d="M29.7648 40.7154L24.7108 45.3232C24.7108 45.3232 24.3158 45.6231 23.8835 45.4351L24.8513 36.876" fill="#B5CFE4"/>
</svg>
