<svg width="26" height="26" viewBox="0 0 26 26" fill="none" xmlns="http://www.w3.org/2000/svg">
<path opacity="0.3" fill-rule="evenodd" clip-rule="evenodd" d="M16.25 23.8333C19.2416 23.8333 21.6667 21.4082 21.6667 18.4167C21.6667 15.4251 19.2416 13 16.25 13C13.2585 13 10.8334 15.4251 10.8334 18.4167C10.8334 21.4082 13.2585 23.8333 16.25 23.8333Z" fill="#343434"/>
<path opacity="0.3" fill-rule="evenodd" clip-rule="evenodd" d="M9.75004 23.8333C12.7416 23.8333 15.1667 21.4082 15.1667 18.4167C15.1667 15.4251 12.7416 13 9.75004 13C6.7585 13 4.33337 15.4251 4.33337 18.4167C4.33337 21.4082 6.7585 23.8333 9.75004 23.8333Z" fill="#343434"/>
<path opacity="0.3" fill-rule="evenodd" clip-rule="evenodd" d="M7.58329 17.3333C10.5748 17.3333 13 14.9082 13 11.9167C13 8.92512 10.5748 6.5 7.58329 6.5C4.59175 6.5 2.16663 8.92512 2.16663 11.9167C2.16663 14.9082 4.59175 17.3333 7.58329 17.3333Z" fill="#343434"/>
<path opacity="0.3" fill-rule="evenodd" clip-rule="evenodd" d="M18.4167 17.3333C21.4082 17.3333 23.8333 14.9082 23.8333 11.9167C23.8333 8.92512 21.4082 6.5 18.4167 6.5C15.4251 6.5 13 8.92512 13 11.9167C13 14.9082 15.4251 17.3333 18.4167 17.3333Z" fill="#343434"/>
<path opacity="0.3" fill-rule="evenodd" clip-rule="evenodd" d="M13 13C15.9916 13 18.4167 10.5749 18.4167 7.58335C18.4167 4.59181 15.9916 2.16669 13 2.16669C10.0085 2.16669 7.58337 4.59181 7.58337 7.58335C7.58337 10.5749 10.0085 13 13 13Z" fill="#343434"/>
</svg>
